<svg xmlns="http://www.w3.org/2000/svg" viewBox="0 0 500 500" style="enable-background:new 0 0 500 500" xml:space="preserve"><path style="fill:#fdedee" d="M248.125 451.135H47.481S-17.448 130.212 148.676 63.471c131.926-53.002 102.475 70.554 243.357 113.601 171.953 52.541 45.174 272.643 45.174 272.643l-189.082 1.42z"/><path style="fill:none;stroke:#fc6a5a;stroke-width:1.8857;stroke-miterlimit:10" d="M339.976 72.897c14.653 7.37 45.636 27.969 39.61 44.699-5.387 16.63-33.824-2.434-44.005-10.505-7.848-6.181-25.628-29.492-4.58-25.057 10.844 2.168 29.913 22.377 32 32.36 8.35 39.931-57.014-3.312-49.111-10.671 11.109-10.761 56.421 44.643 19.851 37.163-9.356-1.756-30.345-20.699-12.066-15.507 15.089 4.724 14.59 22.844 1.39 24.59"/><path style="fill:#965450" d="M245.012 158.969s-2.779 33.908 13.897 38.911c16.676 5.003 75.432 59.586 90.051 46.137 27.793-25.57 29.461-28.349 17.788-40.022-8.98-8.98-99.5-36.132-99.5-36.132s-8.338-21.123-21.123-21.123c-12.786 0-1.113 12.229-1.113 12.229z"/><path style="fill:#76413b" d="M260.667 156.177c-3.63-4.88-8.606-9.437-14.544-9.437-12.785 0-1.112 12.229-1.112 12.229s-2.484 30.433 11.446 37.88c1.526-13.545 2.974-27.098 4.21-40.672z"/><path style="fill:#965450" d="M216.663 264.029s112.286-67.26 124.515-63.369c21.274 6.769 25.57 26.682 25.57 26.682s-30.017 38.911-86.715 68.928c-56.7 30.016-63.37-32.241-63.37-32.241z"/><path style="fill:#76413b" d="M274.743 230.66c-29.75 16.399-58.08 33.369-58.08 33.369s6.671 62.257 63.369 32.24a307.982 307.982 0 0 0 28.961-17.443c-10.466-16.676-22.494-32.47-34.25-48.166z"/><g><path style="fill:#6f96bd" d="M221.11 247.908s38.911-17.788 48.916-20.567c0 0 22.235 51.696 25.014 73.931 0 0-33.908 23.902-60.034 35.02s-13.896-88.384-13.896-88.384z"/><path style="fill:#4f7da3" d="M219.392 266.06c-2.106 28.144-3.34 78.297 15.614 70.232 11.863-5.048 25.323-12.73 36.492-19.615-11.685-17.856-23.976-35.296-38.391-50.992-4.601-.33-9.168-.117-13.715.375z"/></g><g><path style="fill:#965450" d="M161.632 210.109s3.335 30.573-12.785 40.023c-16.12 9.45-48.361-7.782-56.699 36.131-8.338 43.914 135.076-24.458 135.076-24.458l-17.232-53.919-48.36 2.223z"/><path style="fill:#76413b" d="M167.746 210.129c-.071 9.077-1.404 18.505.12 27.518 1.401 8.289 5.266 15.192 10.202 21.885 4.619 6.264 9.929 12.097 15.984 16.859 19.085-7.87 33.173-14.585 33.173-14.585l-17.232-53.919-42.304 1.945c.024.094.058.184.057.297z"/><g><path style="fill:#6f96bd" d="M143.288 250.688s35.02 32.24 72.819 16.954l29.461-23.068s6.311 82.148 20.011 170.096c11.209 71.954-138.411 3.891-138.411 3.891s-49.472-116.732-35.02-145.082 51.14-22.791 51.14-22.791z"/><path style="fill:#4f7da3" d="M264.158 405.871c-3.04-.112-6.078-.301-9.113-.609-25.571-2.594-49.74-13.736-70.361-28.824-20.945-15.326-37.802-35.298-52.829-56.317-12.658-17.706-23.911-36.423-32.885-56.238a39.62 39.62 0 0 0-6.823 9.596c-14.453 28.349 35.02 145.082 35.02 145.082s146.891 58.509 138.411-3.891c-.4-2.954-.956-5.874-1.42-8.799z"/></g></g><g><path style="fill:#965450" d="M137.729 333.512s3.335 48.916 1.112 63.925c0 0 101.81 17 122.933 23.67 21.123 6.671 27.298 25.934 27.298 25.934s-159.126 6.539-189.698-1.243c-30.573-7.782-23.346-121.179-23.346-121.179l61.701 8.893z"/><path style="fill:#76413b" d="M139.249 363.35c-.544-15.52-1.52-29.838-1.52-29.838l-61.701-8.894s-.865 13.583-.729 31.666c19.722 7.772 42.293 9.173 63.95 7.066z"/><path style="fill:#6f96bd" d="M113.271 255.135s-48.916 7.782-44.469 90.607c0 0 44.469 15.564 80.601 4.447 0-.001 2.779-96.166-36.132-95.054z"/></g><g><path style="fill:#965450" d="M217.219 130.62s47.249-.556 38.911 40.023c-8.338 40.578-6.114 72.819-16.12 81.713-10.006 8.894-68.372 12.229-70.039-43.914s8.337-79.49 47.248-77.822z"/><path style="fill:#965450" d="M170.526 192.877s3.335-18.9-12.229-18.344c-15.564.556-3.335 44.469 8.894 38.355 12.229-6.114 3.335-20.011 3.335-20.011z"/><g><path style="fill:#352c38" d="M150.792 186.763s0-8.338 6.67-11.117c4.354-1.814 10.451 2.084 11.673 8.06 2.501 12.229-15.564 60.59 17.232 77.822l-.278-2.501s9.728 9.172 30.017 8.616l.556-3.613 1.112 4.169s25.292-.556 28.071-16.954l-1.39 6.392s5.837-1.946 6.948-14.453c1.112-12.507-1.668-25.014-1.668-25.014s-5.281 26.404-9.172 25.57c-3.891-.834 3.057-27.238-3.613-28.627-6.67-1.39-44.469-9.172-44.469 4.725 0 0 6.948 22.235-1.946 20.845-8.894-1.39-13.619-5.003-12.507-28.905s5.281-48.083 5.281-48.083 13.341 2.223 14.73-17.788c0 0 18.9 24.18 47.805 21.401 0 0-19.455-2.779-28.349-11.673 0 0 35.854 20.845 65.315-2.223l-9.728.556s13.341-5.281 11.117-24.736c0 0-4.169 9.728-10.284 11.673 0 0 8.894-6.115 6.67-17.232 0 0-8.06 11.117-16.12 13.063 0 0 14.453-1.39 11.951-21.679l-10.006 5.837s6.67-3.613 6.67-10.562c0 0-18.066 9.45-32.796 4.725-14.731-4.725-51.696-20.845-61.979 11.395 0 0-13.341-8.338-26.682 5.281-13.338 13.617-.831 55.03-.831 55.03z"/><path style="fill:#352c38" d="M145.79 132.566c2.194-2.238 4.716-4.158 7.423-5.778a41.77 41.77 0 0 1 2.074-1.149 36.08 36.08 0 0 1 2.156-1.003 26.76 26.76 0 0 1 2.235-.84c.754-.261 1.532-.452 2.31-.639l1.179-.241 1.194-.171c.799-.082 1.605-.17 2.414-.158.809-.03 1.618.044 2.428.099.803.118 1.612.218 2.4.426.801.156 1.565.444 2.343.686.748.317 1.523.587 2.235.982.738.348 1.432.771 2.12 1.204.698.419 1.326.934 1.989 1.403l-1.455 1.107c-.799-2.022-1.064-4.012-1.07-6.078-.018-2.055.431-4.1 1.151-6.017l.591-1.423c.235-.454.508-.888.762-1.332.474-.916 1.14-1.689 1.761-2.496a24.739 24.739 0 0 1 4.392-4.138c.402-.297.778-.64 1.203-.899l1.271-.785c.855-.508 1.675-1.093 2.587-1.48l2.677-1.285.335-.16c.195-.087.249-.098.38-.151l.678-.257c.462-.164.88-.358 1.379-.498a28.904 28.904 0 0 1 5.94-1.211c1.999-.154 4.011-.157 5.988.074 1.974.225 3.932.56 5.837 1.054 1.91.475 3.79 1.039 5.628 1.691 3.688 1.277 7.265 2.757 10.865 4.104 1.8.675 3.611 1.306 5.451 1.81 1.837.507 3.699.938 5.593 1.1 1.89.156 3.808.055 5.652-.424a16.077 16.077 0 0 0 5.187-2.419c-1.488 1.231-3.189 2.252-5.063 2.846-1.866.611-3.852.84-5.82.797-3.949-.122-7.774-1.188-11.46-2.386-3.705-1.184-7.306-2.591-10.969-3.713a72.435 72.435 0 0 0-5.513-1.514c-1.847-.442-3.716-.722-5.583-.899-1.87-.183-3.739-.131-5.59.011a27.076 27.076 0 0 0-5.395 1.126c-.433.119-.896.333-1.343.495l-.676.261c-.093.038-.271.1-.293.118l-.318.155-2.542 1.241c-.87.378-1.633.923-2.443 1.394l-1.201.729c-.403.24-.745.556-1.121.829a22.564 22.564 0 0 0-4.048 3.758c-.56.722-1.173 1.412-1.59 2.222-.227.393-.476.776-.688 1.176l-.54 1.246c-.665 1.676-1.102 3.464-1.118 5.283-.046 1.788.208 3.701.802 5.292l1.119 2.994-2.574-1.886c-.606-.444-1.171-.951-1.805-1.355-.623-.42-1.252-.833-1.921-1.173-.646-.388-1.348-.653-2.028-.971-.708-.242-1.403-.534-2.136-.699-.72-.218-1.464-.327-2.203-.467-.747-.082-1.495-.186-2.252-.191-.755-.046-1.513.005-2.27.048l-1.135.111-1.129.18c-.749.143-1.499.299-2.237.508-.745.184-1.475.427-2.203.678-.728.253-1.443.544-2.155.846-.707.314-1.407.645-2.097 1a39.532 39.532 0 0 0-4.006 2.383c-1.292.872-2.562 1.787-3.739 2.819z"/><path style="fill:#352c38" d="M143.01 113.944c1.876-.197 3.766-.242 5.654-.22 1.888.027 3.78.113 5.661.331.94.107 1.88.226 2.815.381.937.141 1.868.323 2.796.52.93.193 1.85.43 2.769.672.912.268 1.828.53 2.719.869.901.308 1.779.688 2.653 1.069l1.298.608 1.265.677c.428.214.822.49 1.235.732.414.242.815.505 1.202.789.801.531 1.538 1.148 2.285 1.755.703.657 1.425 1.296 2.054 2.03.676.689 1.223 1.492 1.798 2.264.519.813 1.05 1.62 1.465 2.492.479.84.788 1.757 1.17 2.639l-.919.453a53.648 53.648 0 0 1-3.384-6.733c-.956-2.32-1.735-4.722-2.228-7.192a25.403 25.403 0 0 1-.476-3.748c-.014-.631-.038-1.263.017-1.894.029-.631.128-1.259.241-1.88.071-.309.131-.619.212-.924l.287-.904c.233-.587.477-1.17.805-1.709.141-.282.33-.535.514-.79.177-.26.365-.511.587-.733.403-.482.889-.878 1.36-1.283-.442.44-.894.864-1.257 1.368a5.587 5.587 0 0 0-.53.757c-.167.259-.337.515-.46.798-.292.542-.498 1.121-.693 1.701l-.231.889c-.062.299-.104.604-.157.904-.077.606-.141 1.216-.135 1.828-.024.611.013 1.224.049 1.834a24.221 24.221 0 0 0 .582 3.631c.55 2.397 1.42 4.713 2.389 6.976a52.68 52.68 0 0 0 3.381 6.555l-.919.453c-.377-.839-.679-1.714-1.146-2.509-.404-.828-.919-1.59-1.42-2.359-.555-.73-1.089-1.48-1.721-2.149-.59-.706-1.276-1.323-1.941-1.96-.71-.588-1.41-1.189-2.176-1.708a13.12 13.12 0 0 0-1.15-.773c-.396-.238-.773-.509-1.186-.721l-1.219-.669-1.254-.604c-.847-.38-1.696-.76-2.574-1.07-.869-.333-1.755-.62-2.64-.913a53.299 53.299 0 0 0-2.698-.748 46.259 46.259 0 0 0-2.74-.602 54.982 54.982 0 0 0-2.77-.466c-1.856-.258-3.722-.474-5.597-.592-1.876-.114-3.758-.173-5.642-.122z"/></g><g><path style="fill:#fff" d="M197.485 222.616s5.837-18.344 35.02 6.393l-35.02-6.393z"/><path style="fill:#59221e" d="M232.505 178.981c.251 2.958.334 5.915.376 8.87l-.008 4.431-.121 4.428c-.129 2.95-.285 5.901-.553 8.848a136.485 136.485 0 0 1-.446 4.418 147.77 147.77 0 0 1-.64 4.412l-.184 1.149-.99-.494c-.913-.455-1.828-.904-2.732-1.38l-2.717-1.415c-1.802-.964-3.601-1.934-5.366-2.978 1.954.625 3.874 1.324 5.792 2.029l2.863 1.089c.956.359 1.9.745 2.847 1.124l-1.174.655c.084-1.465.188-2.924.316-4.38.081-1.466.159-2.934.276-4.396.125-1.462.157-2.936.285-4.4l.312-4.402c.235-2.934.473-5.871.773-8.806.161-1.467.299-2.936.49-4.402.165-1.467.375-2.933.601-4.4zM162.744 206.774a10.557 10.557 0 0 1-1.476-2.512c-.08-.232-.189-.455-.246-.696-.055-.241-.145-.476-.171-.726-.02-.25-.083-.498-.066-.753.028-.253 0-.517.08-.766.089-.243.114-.519.263-.739.149-.215.254-.477.45-.651.195-.175.389-.357.592-.524l.683-.366c.224-.142.472-.19.713-.269l.729-.218 1.482-.218-.349.313c.25-1.751.372-3.54.458-5.312a40.115 40.115 0 0 0-.109-5.307c-.164-1.746-.472-3.498-1.145-5.061-.332-.779-.756-1.511-1.314-2.103a4.306 4.306 0 0 0-2.037-1.203 5.943 5.943 0 0 0-2.465-.09c-.831.13-1.612.375-2.309.82a4.924 4.924 0 0 0-1.659 1.787c-.406.732-.659 1.563-.807 2.416-.298 1.717-.169 3.508.043 5.27.236 1.766.641 3.516 1.157 5.236-.702-1.656-1.214-3.392-1.589-5.163-.37-1.77-.552-3.605-.328-5.449.118-.919.348-1.843.776-2.703.424-.856 1.063-1.646 1.882-2.188.804-.548 1.765-.868 2.699-1.031a6.777 6.777 0 0 1 2.873.062 5.402 5.402 0 0 1 2.549 1.48c.683.714 1.173 1.557 1.55 2.422.743 1.744 1.033 3.587 1.195 5.404.161 1.823.118 3.645.008 5.453-.11 1.812-.352 3.6-.677 5.392l-.051.283-.298.03-1.397.142-.669.17c-.221.062-.457.095-.65.211l-.611.29-.512.416c-.173.139-.262.343-.405.511-.143.171-.17.403-.266.603-.087.206-.074.443-.118.665-.034.226.01.46.01.692.006.233.076.462.111.695.037.234.127.456.188.686.298.904.716 1.781 1.233 2.599z"/><path style="fill:#1a141c" d="m234.451 171.198.633.927c.199.284.449.619.726.99.279.372.586.779.939 1.201.32.436.741.858 1.116 1.32.432.43.819.911 1.299 1.339.24.213.443.46.69.672.253.207.502.419.741.644.48.446 1.048.814 1.551 1.248l1.657 1.138c.591.317 1.13.714 1.7 1.036.583.298 1.142.619 1.677.941.553.28 1.092.537 1.587.81.493.283.957.538 1.385.728.424.205.795.418 1.105.587.62.344.982.594.982.594s-.396.137-1.102.282c-.353.07-.787.162-1.286.229-.25.036-.517.071-.798.091l-.882-.004c-.616-.02-1.292-.041-2.002-.125a33.31 33.31 0 0 1-2.204-.502c-.754-.227-1.51-.567-2.276-.908-.755-.368-1.466-.865-2.19-1.326-.649-.573-1.357-1.079-1.91-1.734-.579-.628-1.108-1.277-1.521-1.977-.462-.661-.762-1.394-1.067-2.054-.244-.697-.482-1.34-.589-1.972a10.169 10.169 0 0 1-.221-1.71c-.03-.51.01-.964.039-1.327.071-.734.221-1.138.221-1.138zM225.557 170.365s-.16.517-.643 1.329c-.256.385-.546.9-.976 1.392-.407.524-.925 1.055-1.524 1.613-.61.536-1.305 1.102-2.101 1.603-.397.252-.82.489-1.249.744-.436.239-.907.421-1.378.637-.47.221-.959.417-1.472.555-.507.158-1.024.314-1.55.454a27.252 27.252 0 0 1-3.242.494l-1.639.038a8.864 8.864 0 0 1-1.616-.066 35.518 35.518 0 0 1-1.575-.186c-.519-.063-1.028-.127-1.512-.277a46.306 46.306 0 0 1-2.782-.785 53.462 53.462 0 0 1-2.355-1.035l-1.018-.498-.87-.552c-.542-.35-.998-.685-1.373-.952-.747-.541-1.143-.895-1.143-.895s.551-.003 1.46.069c.454.039 1.004.076 1.615.153l.967.128 1.078.072c.745.059 1.538.138 2.364.242.835.04 1.707.07 2.594.146.888.099 1.802-.001 2.72.059.461.035.921-.007 1.38-.032l1.383-.063c.466.013.913-.096 1.369-.135.451-.068.914-.072 1.358-.15.874-.2 1.779-.265 2.606-.512l1.247-.298c.4-.122.789-.253 1.181-.359.4-.093.754-.255 1.12-.378.359-.133.728-.235 1.052-.385.668-.271 1.295-.523 1.837-.786.56-.24 1.027-.493 1.433-.69.381-.222.718-.372.92-.503l.334-.191zM211.072 188.005c-.546 3.488-2.157 6.133-3.597 5.907-1.441-.225-2.166-3.236-1.62-6.724.546-3.488 2.157-6.133 3.597-5.907 1.441.226 2.166 3.236 1.62 6.724zM242.757 193.564c-.546 3.488-2.157 6.133-3.597 5.907-1.441-.225-2.166-3.236-1.62-6.724.546-3.488 2.157-6.133 3.597-5.907 1.441.225 2.166 3.236 1.62 6.724z"/><path style="fill:#59221e" d="m203.322 190.932.108.847c.061.537.191 1.299.369 2.194.094.447.213.924.346 1.421.145.493.326 1 .548 1.491.231.483.519.955.884 1.304.37.322.798.597 1.284.578.389.023.898-.209 1.308-.536a7.485 7.485 0 0 0 1.154-1.178c.689-.868 1.241-1.783 1.704-2.573.453-.797.834-1.471 1.074-1.956l.393-.759s-.215 1.233-.891 2.991c-.346.874-.806 1.882-1.493 2.88-.35.492-.743 1.002-1.269 1.431-.529.416-1.178.822-2.042.808-.771-.005-1.474-.444-1.977-.926-.511-.506-.788-1.116-1.027-1.684-.229-.576-.356-1.149-.456-1.689a13.51 13.51 0 0 1-.17-1.525c-.083-1.888.153-3.119.153-3.119zM235.84 196.768l.103.748c.053.474.177 1.148.32 1.941.155.79.348 1.712.685 2.613.155.456.392.881.652 1.248.284.328.59.637.976.649l.068.021.017.006.008.003c.019.001-.147-.003-.074-.001h.006l.051-.002.204-.008c.123-.012.308.007.353-.044a1.12 1.12 0 0 1 .228-.08l.271-.167c.189-.097.342-.293.522-.427.15-.185.32-.344.454-.544.564-.769.983-1.61 1.328-2.336.333-.733.615-1.357.778-1.805l.277-.702s-.006.277-.067.756c-.072.476-.161 1.166-.388 1.969-.222.804-.542 1.739-1.12 2.67-.296.457-.646.939-1.175 1.302-.136.088-.265.179-.413.26a6.602 6.602 0 0 1-.54.185c-.205.072-.302.045-.449.064l-.204.013-.051.003-.093-.001-.016-.003-.033-.007-.131-.029c-.741-.086-1.279-.631-1.651-1.109-.358-.511-.567-1.057-.715-1.576-.162-.519-.239-1.029-.299-1.508a11.148 11.148 0 0 1-.092-1.349c-.021-.833.055-1.523.097-2.003.055-.479.113-.75.113-.75z"/></g></g><g><path style="fill:#352c38" d="M403.701 449.198H268.97l50.979-111.351H454.68z"/><path style="fill:#352c38" d="M193.867 437.19h93.765v12.009h-93.765z"/><path style="fill:#765e69" d="M412.804 449.198h-134.73l50.979-111.351h134.73z"/></g></svg>